{"glyphs":{"0":{"ha":648,"x_min":0,"x_max":0,"o":"m 324 -14 b 50 262 158 -14 50 76 l 50 438 b 324 714 50 618 158 714 b 598 438 490 714 598 618 l 598 262 b 324 -14 598 76 490 -14 m 324 100 b 470 258 424 100 470 157 l 470 444 b 324 600 470 547 413 600 b 178 444 232 600 178 543 l 178 258 b 324 100 178 153 227 100"},"1":{"ha":452,"x_min":0,"x_max":0,"o":"m 258 606 l 240 606 l 146 384 l 12 384 l 155 700 l 386 700 l 386 0 l 258 0"},"2":{"ha":594,"x_min":0,"x_max":0,"o":"m 42 84 b 247 337 42 230 115 296 l 314 358 b 428 487 387 381 428 423 l 428 491 b 301 600 428 557 379 600 b 172 478 223 600 172 557 l 172 460 l 44 460 l 44 476 b 301 714 44 627 157 714 b 556 493 445 714 556 627 l 556 483 b 347 245 556 348 466 282 l 283 225 b 173 118 197 198 173 169 l 173 114 l 550 114 l 550 0 l 42 0"},"3":{"ha":608,"x_min":0,"x_max":0,"o":"m 304 -14 b 34 219 146 -14 34 75 l 34 237 l 162 237 l 162 223 b 304 100 162 148 218 100 b 440 209 390 100 440 146 l 440 219 b 320 310 440 283 388 310 l 180 310 l 180 450 l 406 570 l 406 586 l 52 586 l 52 700 l 548 700 l 548 530 l 337 418 l 337 402 l 374 402 b 568 222 467 402 568 348 l 568 210 b 304 -14 568 73 462 -14"},"4":{"ha":636,"x_min":0,"x_max":0,"o":"m 370 142 l 26 142 l 26 290 l 268 700 l 498 700 l 498 256 l 614 256 l 614 142 l 498 142 l 498 0 l 370 0 m 370 256 l 370 618 l 352 618 l 148 272 l 148 256"},"5":{"ha":600,"x_min":0,"x_max":0,"o":"m 303 -14 b 38 220 139 -14 38 79 l 38 230 l 168 230 l 168 221 b 301 100 168 154 213 100 b 438 228 389 100 438 152 l 438 238 b 314 360 438 312 385 360 b 215 308 256 360 230 332 l 60 308 l 60 700 l 538 700 l 538 584 l 188 584 l 188 413 l 206 413 b 341 466 225 438 266 466 b 566 239 464 466 566 386 l 566 227 b 303 -14 566 79 467 -14"},"6":{"ha":618,"x_min":0,"x_max":0,"o":"m 312 -14 b 50 221 152 -14 50 83 l 50 460 b 318 714 50 630 162 714 b 574 496 474 714 574 632 l 444 496 b 318 600 444 552 408 600 b 178 468 228 600 178 550 l 178 396 l 196 396 b 350 452 219 423 260 452 b 578 231 471 452 578 371 l 578 219 b 312 -14 578 80 472 -14 m 314 100 b 450 221 398 100 450 147 l 450 229 b 314 350 450 303 397 350 b 178 229 231 350 178 303 l 178 221 b 314 100 178 147 230 100"},"7":{"ha":554,"x_min":0,"x_max":0,"o":"m 131 26 b 163 155 131 78 136 108 l 398 570 l 398 586 l 26 586 l 26 700 l 530 700 l 530 548 l 282 105 b 259 20 265 74 259 55 l 259 0 l 131 0"},"8":{"ha":600,"x_min":0,"x_max":0,"o":"m 300 -14 b 28 187 140 -14 28 62 l 28 199 b 136 353 28 294 89 339 l 136 371 b 38 517 89 387 38 432 l 38 529 b 300 714 38 638 142 714 b 562 529 458 714 562 638 l 562 517 b 464 371 562 432 511 387 l 464 353 b 572 199 511 339 572 294 l 572 187 b 300 -14 572 62 460 -14 m 300 416 b 434 504 385 416 434 448 l 434 512 b 300 600 434 568 383 600 b 166 512 217 600 166 568 l 166 504 b 300 416 166 448 215 416 m 300 100 b 444 197 392 100 444 138 l 444 205 b 300 302 444 264 394 302 b 156 205 206 302 156 264 l 156 197 b 300 100 156 138 208 100"},"9":{"ha":618,"x_min":0,"x_max":0,"o":"m 300 -14 b 44 204 144 -14 44 68 l 174 204 b 300 100 174 148 210 100 b 440 232 390 100 440 150 l 440 304 l 422 304 b 268 248 399 277 358 248 b 40 469 147 248 40 329 l 40 481 b 306 714 40 620 146 714 b 568 479 466 714 568 617 l 568 240 b 300 -14 568 70 456 -14 m 304 350 b 440 471 387 350 440 397 l 440 479 b 304 600 440 553 388 600 b 168 479 220 600 168 553 l 168 471 b 304 350 168 397 221 350"}," ":{"ha":254,"x_min":0,"x_max":0,"o":""},"!":{"ha":298,"x_min":0,"x_max":0,"o":"m 85 700 l 213 700 l 213 230 l 85 230 m 149 -14 b 54 81 95 -14 54 25 b 149 176 54 137 95 176 b 244 81 203 176 244 137 b 149 -14 244 25 203 -14"},"\"":{"ha":514,"x_min":0,"x_max":0,"o":"m 79 461 l 118 461 b 164 507 150 461 164 475 l 164 539 l 147 539 b 54 624 93 539 54 575 b 147 714 54 677 93 714 b 240 620 201 714 240 677 l 240 505 b 128 393 240 431 202 393 l 79 393 m 299 461 l 338 461 b 384 507 370 461 384 475 l 384 539 l 367 539 b 274 624 313 539 274 575 b 367 714 274 677 313 714 b 460 620 421 714 460 677 l 460 505 b 348 393 460 431 422 393 l 299 393"},"#":{"ha":636,"x_min":0,"x_max":0,"o":"m 148 186 l 40 186 l 40 294 l 148 294 l 148 406 l 40 406 l 40 514 l 148 514 l 148 700 l 262 700 l 262 514 l 374 514 l 374 700 l 488 700 l 488 514 l 596 514 l 596 406 l 488 406 l 488 294 l 596 294 l 596 186 l 488 186 l 488 0 l 374 0 l 374 186 l 262 186 l 262 0 l 148 0 m 374 294 l 374 406 l 262 406 l 262 294"},"$":{"ha":606,"x_min":0,"x_max":0,"o":"m 248 -9 b 34 228 119 11 34 96 l 34 256 l 164 256 l 164 228 b 248 110 164 165 195 126 l 248 309 b 52 510 124 341 52 392 b 248 711 52 623 127 695 l 248 816 l 368 816 l 368 708 b 558 486 481 688 558 614 l 558 456 l 428 456 l 428 486 b 368 587 428 539 406 571 l 368 405 b 574 202 494 372 574 318 b 368 -10 574 90 496 9 l 368 -116 l 248 -116 m 182 514 b 248 435 182 476 203 452 l 248 592 b 182 514 203 581 182 553 m 444 198 b 368 279 444 241 418 263 l 368 109 b 444 198 419 123 444 156"},"%":{"ha":758,"x_min":0,"x_max":0,"o":"m 72 48 l 610 713 l 686 652 l 148 -13 m 188 400 b 26 551 87 400 26 457 l 26 558 b 188 710 26 652 87 710 b 350 558 286 710 350 652 l 350 551 b 188 400 350 457 289 400 m 188 482 b 250 547 227 482 250 508 l 250 563 b 188 628 250 602 227 628 b 126 563 149 628 126 602 l 126 547 b 188 482 126 508 149 482 m 570 -10 b 408 141 469 -10 408 47 l 408 148 b 570 300 408 242 469 300 b 732 148 668 300 732 242 l 732 141 b 570 -10 732 47 671 -10 m 570 72 b 632 137 609 72 632 98 l 632 153 b 570 218 632 192 609 218 b 508 153 531 218 508 192 l 508 137 b 570 72 508 98 531 72"},"&":{"ha":591,"x_min":0,"x_max":0,"o":"m 235 0 b 28 189 111 0 28 71 b 146 348 28 274 79 328 l 146 362 b 32 512 79 382 32 430 b 239 700 32 634 119 700 l 348 700 l 348 596 l 262 596 b 158 501 202 596 158 564 b 262 406 158 434 206 406 l 359 406 l 359 496 l 485 496 l 485 406 l 577 406 l 577 302 l 485 302 l 485 0 l 235 0 m 359 104 l 359 302 l 258 302 b 154 203 199 302 154 268 b 258 104 154 136 203 104"},"'":{"ha":294,"x_min":0,"x_max":0,"o":"m 79 461 l 118 461 b 164 507 150 461 164 475 l 164 539 l 147 539 b 54 624 93 539 54 575 b 147 714 54 677 93 714 b 240 620 201 714 240 677 l 240 505 b 128 393 240 431 202 393 l 79 393"},"(":{"ha":398,"x_min":0,"x_max":0,"o":"m 390 -246 b 50 116 167 -246 50 -132 l 50 394 b 390 756 50 642 167 756 l 390 648 b 172 390 244 648 172 567 l 172 120 b 390 -138 172 -57 244 -138 l 390 -246"},")":{"ha":390,"x_min":0,"x_max":0,"o":"m 0 -138 b 218 120 146 -138 218 -57 l 218 390 b 0 648 218 567 146 648 l 0 756 b 340 394 223 756 340 642 l 340 116 b 0 -246 340 -132 223 -246"},"*":{"ha":540,"x_min":0,"x_max":0,"o":"m 44 511 l 122 511 l 194 498 l 199 511 l 139 552 l 84 608 l 136 660 l 192 605 l 233 545 l 246 550 l 233 622 l 233 700 l 307 700 l 307 622 l 294 550 l 307 545 l 348 605 l 404 660 l 456 608 l 401 552 l 341 511 l 346 498 l 418 511 l 496 511 l 496 437 l 418 437 l 346 450 l 341 437 l 401 396 l 456 340 l 404 288 l 348 343 l 307 403 l 294 398 l 307 326 l 307 248 l 233 248 l 233 326 l 246 398 l 233 403 l 192 343 l 136 288 l 84 340 l 139 396 l 199 437 l 194 450 l 122 437 l 44 437"},"+":{"ha":620,"x_min":0,"x_max":0,"o":"m 251 293 l 101 293 l 101 407 l 251 407 l 251 559 l 369 559 l 369 407 l 519 407 l 519 293 l 369 293 l 369 141 l 251 141"},",":{"ha":294,"x_min":0,"x_max":0,"o":"m 79 -79 l 118 -79 b 164 -33 150 -79 164 -65 l 164 -1 l 147 -1 b 54 84 93 -1 54 35 b 147 174 54 137 93 174 b 240 80 201 174 240 137 l 240 -35 b 128 -147 240 -109 202 -147 l 79 -147"},"-":{"ha":432,"x_min":0,"x_max":0,"o":"m 68 312 l 364 312 l 364 198 l 68 198"},".":{"ha":298,"x_min":0,"x_max":0,"o":"m 149 -14 b 54 81 95 -14 54 25 b 149 176 54 137 95 176 b 244 81 203 176 244 137 b 149 -14 244 25 203 -14"},"/":{"ha":388,"x_min":0,"x_max":0,"o":"m 278 700 l 404 700 l 110 -200 l -16 -200"},":":{"ha":298,"x_min":0,"x_max":0,"o":"m 149 320 b 54 415 95 320 54 359 b 149 510 54 471 95 510 b 244 415 203 510 244 471 b 149 320 244 359 203 320 m 149 -14 b 54 81 95 -14 54 25 b 149 176 54 137 95 176 b 244 81 203 176 244 137 b 149 -14 244 25 203 -14"},";":{"ha":298,"x_min":0,"x_max":0,"o":"m 149 320 b 54 415 95 320 54 359 b 149 510 54 471 95 510 b 244 415 203 510 244 471 b 149 320 244 359 203 320 m 81 -79 l 120 -79 b 166 -33 152 -79 166 -65 l 166 -1 l 149 -1 b 56 84 95 -1 56 35 b 149 174 56 137 95 174 b 242 80 203 174 242 137 l 242 -35 b 130 -147 242 -109 204 -147 l 81 -147"},"<":{"ha":620,"x_min":0,"x_max":0,"o":"m 100 272 l 100 428 l 520 570 l 520 450 l 222 359 l 222 341 l 520 250 l 520 130"},"=":{"ha":620,"x_min":0,"x_max":0,"o":"m 101 494 l 519 494 l 519 380 l 101 380 m 101 320 l 519 320 l 519 206 l 101 206"},">":{"ha":620,"x_min":0,"x_max":0,"o":"m 100 250 l 398 341 l 398 359 l 100 450 l 100 570 l 520 428 l 520 272 l 100 130"},"?":{"ha":578,"x_min":0,"x_max":0,"o":"m 209 254 b 296 393 209 322 234 364 l 313 401 b 406 510 373 429 406 456 b 290 602 406 568 360 602 b 164 494 218 602 164 566 l 164 472 l 34 472 l 34 492 b 290 714 34 630 146 714 b 536 510 432 714 536 630 b 390 309 536 390 460 342 l 373 301 b 341 248 349 290 341 277 l 341 230 l 209 230 m 279 -14 b 184 81 225 -14 184 25 b 279 176 184 137 225 176 b 374 81 333 176 374 137 b 279 -14 374 25 333 -14"},"@":{"ha":1014,"x_min":0,"x_max":0,"o":"m 524 -200 b 66 246 238 -200 66 -28 l 66 270 b 512 714 66 544 236 714 l 534 714 b 952 296 785 714 952 546 l 952 222 b 780 0 952 82 895 0 l 722 0 b 625 70 659 0 625 27 l 625 72 l 607 72 b 483 -6 590 29 556 -6 b 280 242 357 -6 280 104 l 280 258 b 473 506 280 398 355 506 b 598 440 547 506 577 475 l 616 440 l 616 500 l 738 500 l 738 146 b 769 112 738 123 746 112 l 773 112 b 828 222 812 112 828 149 l 828 294 b 530 600 828 484 731 600 l 516 600 b 190 266 314 600 190 484 l 190 250 b 532 -86 190 32 316 -86 l 740 -86 l 740 -200 l 524 -200 m 509 102 b 616 244 574 102 616 156 l 616 256 b 509 398 616 344 574 398 b 404 256 444 398 404 344 l 404 244 b 509 102 404 156 444 102"},"A":{"ha":634,"x_min":0,"x_max":0,"o":"m 202 700 l 432 700 l 616 0 l 480 0 l 442 154 l 192 154 l 154 0 l 18 0 m 411 276 l 326 617 l 308 617 l 223 276"},"B":{"ha":664,"x_min":0,"x_max":0,"o":"m 46 116 l 138 116 l 138 584 l 46 584 l 46 700 l 406 700 b 618 523 534 700 618 632 l 618 513 b 511 364 618 416 554 377 l 511 346 b 622 195 555 334 622 295 l 622 185 b 410 0 622 68 535 0 l 46 0 m 392 412 b 486 491 447 412 486 441 l 486 501 b 392 580 486 551 448 580 l 270 580 l 270 412 m 394 120 b 490 201 451 120 490 149 l 490 211 b 394 292 490 263 452 292 l 270 292 l 270 120"},"C":{"ha":644,"x_min":0,"x_max":0,"o":"m 332 -14 b 50 266 158 -14 50 86 l 50 434 b 332 714 50 614 158 714 b 602 450 504 714 602 614 l 602 444 l 472 444 l 472 454 b 332 596 472 536 426 596 b 182 436 238 596 182 534 l 182 264 b 332 104 182 166 238 104 b 472 246 426 104 472 164 l 472 264 l 602 264 l 602 250 b 332 -14 602 86 504 -14"},"D":{"ha":666,"x_min":0,"x_max":0,"o":"m 46 116 l 138 116 l 138 584 l 46 584 l 46 700 l 334 700 b 622 416 522 700 622 604 l 622 284 b 334 0 622 96 522 0 l 46 0 m 336 120 b 490 280 442 120 490 178 l 490 420 b 336 580 490 522 442 580 l 270 580 l 270 120"},"E":{"ha":554,"x_min":0,"x_max":0,"o":"m 66 700 l 516 700 l 516 580 l 198 580 l 198 413 l 488 413 l 488 293 l 198 293 l 198 120 l 522 120 l 522 0 l 66 0"},"F":{"ha":534,"x_min":0,"x_max":0,"o":"m 66 700 l 506 700 l 506 580 l 198 580 l 198 411 l 482 411 l 482 291 l 198 291 l 198 0 l 66 0"},"G":{"ha":662,"x_min":0,"x_max":0,"o":"m 308 -14 b 50 266 164 -14 50 86 l 50 434 b 332 714 50 614 158 714 b 602 460 504 714 602 616 l 602 456 l 472 456 l 472 464 b 332 596 472 538 426 596 b 182 436 238 596 182 534 l 182 264 b 334 102 182 166 238 102 b 472 236 430 102 472 158 l 472 246 l 306 246 l 306 358 l 602 358 l 602 0 l 480 0 l 480 67 l 462 67 b 308 -14 448 33 416 -14"},"H":{"ha":656,"x_min":0,"x_max":0,"o":"m 66 700 l 198 700 l 198 411 l 458 411 l 458 700 l 590 700 l 590 0 l 458 0 l 458 291 l 198 291 l 198 0 l 66 0"},"I":{"ha":264,"x_min":0,"x_max":0,"o":"m 66 700 l 198 700 l 198 0 l 66 0"},"J":{"ha":610,"x_min":0,"x_max":0,"o":"m 267 -14 b 32 210 123 -14 32 69 l 32 276 l 164 276 l 164 210 b 263 110 164 147 200 110 b 356 210 322 110 356 146 l 356 580 l 236 580 l 236 700 l 568 700 l 568 580 l 488 580 l 488 210 b 267 -14 488 65 404 -14"},"K":{"ha":626,"x_min":0,"x_max":0,"o":"m 66 700 l 198 700 l 198 422 l 216 422 l 443 700 l 612 700 l 320 355 l 622 0 l 448 0 l 216 284 l 198 284 l 198 0 l 66 0"},"L":{"ha":542,"x_min":0,"x_max":0,"o":"m 66 700 l 198 700 l 198 120 l 518 120 l 518 0 l 66 0"},"M":{"ha":882,"x_min":0,"x_max":0,"o":"m 66 700 l 311 700 l 432 90 l 450 90 l 571 700 l 816 700 l 816 0 l 688 0 l 688 603 l 670 603 l 550 0 l 332 0 l 212 603 l 194 603 l 194 0 l 66 0"},"N":{"ha":670,"x_min":0,"x_max":0,"o":"m 66 700 l 317 700 l 456 90 l 474 90 l 474 700 l 604 700 l 604 0 l 353 0 l 214 610 l 196 610 l 196 0 l 66 0"},"O":{"ha":676,"x_min":0,"x_max":0,"o":"m 338 -14 b 50 266 162 -14 50 86 l 50 434 b 338 714 50 614 162 714 b 626 434 514 714 626 614 l 626 266 b 338 -14 626 86 514 -14 m 338 104 b 494 262 436 104 494 166 l 494 438 b 338 596 494 534 436 596 b 182 438 240 596 182 534 l 182 262 b 338 104 182 166 240 104"},"P":{"ha":604,"x_min":0,"x_max":0,"o":"m 66 700 l 354 700 b 578 485 486 700 578 616 l 578 471 b 354 256 578 340 482 256 l 198 256 l 198 0 l 66 0 m 341 376 b 446 473 403 376 446 413 l 446 483 b 341 580 446 543 404 580 l 198 580 l 198 376"},"Q":{"ha":676,"x_min":0,"x_max":0,"o":"m 384 -180 b 274 -68 318 -180 274 -136 l 274 -9 b 50 266 135 13 50 109 l 50 434 b 338 714 50 614 162 714 b 626 434 514 714 626 614 l 626 266 b 402 -9 626 109 541 13 l 402 -48 b 430 -78 402 -68 412 -78 l 489 -78 l 489 -180 l 384 -180 m 338 104 b 494 262 436 104 494 166 l 494 438 b 338 596 494 534 436 596 b 182 438 240 596 182 534 l 182 262 b 338 104 182 166 240 104"},"R":{"ha":632,"x_min":0,"x_max":0,"o":"m 66 700 l 370 700 b 588 513 501 700 588 626 l 588 501 b 484 342 588 417 543 366 l 484 324 b 568 229 537 321 568 285 l 568 0 l 436 0 l 436 210 b 382 264 436 242 421 264 l 198 264 l 198 0 l 66 0 m 356 384 b 456 477 418 384 456 421 l 456 487 b 356 580 456 543 420 580 l 198 580 l 198 384"},"S":{"ha":606,"x_min":0,"x_max":0,"o":"m 309 -14 b 34 228 147 -14 34 76 l 34 256 l 164 256 l 164 228 b 309 102 164 144 219 102 b 444 198 399 102 444 142 b 303 296 444 256 393 276 l 280 301 b 50 510 135 333 50 382 b 297 714 50 638 147 714 b 556 486 447 714 556 638 l 556 456 l 426 456 l 426 486 b 297 598 426 566 377 598 b 180 514 217 598 180 566 b 303 419 180 462 219 437 l 326 414 b 574 202 475 382 574 330 b 309 -14 574 74 471 -14"},"T":{"ha":588,"x_min":0,"x_max":0,"o":"m 228 580 l 24 580 l 24 700 l 564 700 l 564 580 l 360 580 l 360 0 l 228 0"},"U":{"ha":672,"x_min":0,"x_max":0,"o":"m 336 -14 b 62 246 164 -14 62 86 l 62 700 l 194 700 l 194 242 b 336 104 194 156 244 104 b 478 242 428 104 478 156 l 478 700 l 610 700 l 610 246 b 336 -14 610 86 508 -14"},"V":{"ha":618,"x_min":0,"x_max":0,"o":"m 18 700 l 154 700 l 302 85 l 316 85 l 464 700 l 600 700 l 422 0 l 196 0"},"W":{"ha":898,"x_min":0,"x_max":0,"o":"m 30 700 l 161 700 l 229 92 l 247 92 l 335 700 l 563 700 l 651 92 l 669 92 l 737 700 l 868 700 l 776 0 l 548 0 l 458 622 l 440 622 l 350 0 l 122 0"},"X":{"ha":644,"x_min":0,"x_max":0,"o":"m 227 353 l 24 700 l 174 700 l 313 447 l 331 447 l 470 700 l 620 700 l 417 353 l 622 0 l 472 0 l 331 259 l 313 259 l 172 0 l 22 0"},"Y":{"ha":624,"x_min":0,"x_max":0,"o":"m 246 241 l 8 700 l 155 700 l 303 400 l 321 400 l 469 700 l 616 700 l 378 241 l 378 0 l 246 0"},"Z":{"ha":576,"x_min":0,"x_max":0,"o":"m 46 168 l 392 566 l 392 582 l 56 582 l 56 700 l 530 700 l 530 532 l 184 134 l 184 118 l 532 118 l 532 0 l 46 0"},"[":{"ha":358,"x_min":0,"x_max":0,"o":"m 172 -246 b 70 -144 112 -246 70 -204 l 70 654 b 172 756 70 714 112 756 l 342 756 l 342 648 l 219 648 b 192 618 201 648 192 638 l 192 -108 b 219 -138 192 -128 201 -138 l 342 -138 l 342 -246 l 172 -246"},"\\":{"ha":388,"x_min":0,"x_max":0,"o":"m -16 700 l 110 700 l 404 -200 l 278 -200"},"]":{"ha":358,"x_min":0,"x_max":0,"o":"m 16 -138 l 139 -138 b 166 -108 157 -138 166 -128 l 166 618 b 139 648 166 638 157 648 l 16 648 l 16 756 l 186 756 b 288 654 246 756 288 714 l 288 -144 b 186 -246 288 -204 246 -246 l 16 -246"},"^":{"ha":620,"x_min":0,"x_max":0,"o":"m 216 700 l 404 700 l 550 424 l 410 424 l 319 620 l 301 620 l 210 424 l 70 424"},"_":{"ha":620,"x_min":0,"x_max":0,"o":"m 65 -48 l 555 -48 l 555 -162 l 65 -162"},"`":{"ha":296,"x_min":0,"x_max":0,"o":"m 40 700 l 182 700 l 256 552 l 146 552"},"a":{"ha":578,"x_min":0,"x_max":0,"o":"m 224 -14 b 38 145 118 -14 38 43 b 230 300 38 247 118 300 l 366 300 l 366 328 b 274 408 366 374 338 408 b 174 331 211 408 183 376 l 58 370 b 276 510 82 445 147 510 b 488 319 406 510 488 443 l 488 134 b 516 104 488 114 498 104 l 556 104 l 556 0 l 472 0 b 387 66 423 0 387 26 l 387 67 l 368 67 b 224 -14 359 42 328 -14 m 246 88 b 366 196 316 88 366 130 l 366 206 l 239 206 b 164 149 192 206 164 185 b 246 88 164 113 192 88"},"b":{"ha":638,"x_min":0,"x_max":0,"o":"m 368 -14 b 212 60 278 -14 235 22 l 194 60 l 194 0 l 70 0 l 70 700 l 196 700 l 196 439 l 214 439 b 368 510 235 474 278 510 b 592 256 488 510 592 418 l 592 240 b 368 -14 592 78 487 -14 m 330 96 b 466 243 407 96 466 147 l 466 253 b 330 400 466 349 408 400 b 194 253 252 400 194 349 l 194 243 b 330 96 194 147 253 96"},"c":{"ha":586,"x_min":0,"x_max":0,"o":"m 303 -14 b 46 241 159 -14 46 79 l 46 255 b 303 510 46 417 159 510 b 549 318 445 510 528 428 l 427 292 b 306 398 419 352 382 398 b 172 253 230 398 172 347 l 172 243 b 306 98 172 149 230 98 b 430 205 382 98 419 141 l 552 176 b 303 -14 526 69 445 -14"},"d":{"ha":638,"x_min":0,"x_max":0,"o":"m 270 -14 b 46 240 151 -14 46 78 l 46 256 b 270 510 46 418 150 510 b 424 439 360 510 403 474 l 442 439 l 442 700 l 568 700 l 568 0 l 444 0 l 444 60 l 426 60 b 270 -14 403 22 360 -14 m 308 96 b 444 243 385 96 444 147 l 444 253 b 308 400 444 349 386 400 b 172 253 230 400 172 349 l 172 243 b 308 96 172 147 231 96"},"e":{"ha":577,"x_min":0,"x_max":0,"o":"m 296 -14 b 46 242 147 -14 46 86 l 46 254 b 294 510 46 410 146 510 b 535 254 440 510 535 406 l 535 211 l 174 211 b 300 96 177 143 230 96 b 416 170 370 96 399 132 l 519 116 b 296 -14 491 63 432 -14 m 407 305 b 293 400 401 362 358 400 b 175 305 225 400 184 362"},"f":{"ha":436,"x_min":0,"x_max":0,"o":"m 152 392 l 26 392 l 26 496 l 152 496 l 152 588 b 262 700 152 656 196 700 l 392 700 l 392 596 l 306 596 b 278 566 288 596 278 586 l 278 496 l 408 496 l 408 392 l 278 392 l 278 0 l 152 0"},"g":{"ha":638,"x_min":0,"x_max":0,"o":"m 46 262 b 272 510 46 418 149 510 b 426 436 362 510 404 470 l 444 436 l 444 496 l 568 496 l 568 -88 b 458 -200 568 -156 524 -200 l 126 -200 l 126 -90 l 414 -90 b 442 -60 432 -90 442 -80 l 442 69 l 424 69 b 272 -2 404 36 363 -2 b 46 246 150 -2 46 90 m 308 108 b 444 249 385 108 444 159 l 444 259 b 308 400 444 349 386 400 b 172 259 230 400 172 349 l 172 249 b 308 108 172 159 231 108"},"h":{"ha":616,"x_min":0,"x_max":0,"o":"m 70 700 l 196 700 l 196 435 l 214 435 b 357 504 230 467 269 504 b 550 296 473 504 550 419 l 550 0 l 424 0 l 424 286 b 318 398 424 361 386 398 b 196 252 241 398 196 344 l 196 0 l 70 0"},"i":{"ha":266,"x_min":0,"x_max":0,"o":"m 133 554 b 52 634 87 554 52 586 b 133 714 52 682 87 714 b 214 634 179 714 214 682 b 133 554 214 586 179 554 m 70 496 l 196 496 l 196 0 l 70 0"},"j":{"ha":268,"x_min":0,"x_max":0,"o":"m 135 554 b 54 634 89 554 54 586 b 135 714 54 682 89 714 b 216 634 181 714 216 682 b 135 554 216 586 181 554 m -22 -92 l 44 -92 b 72 -62 62 -92 72 -82 l 72 496 l 198 496 l 198 -88 b 88 -200 198 -156 154 -200 l -22 -200"},"k":{"ha":564,"x_min":0,"x_max":0,"o":"m 70 700 l 196 700 l 196 313 l 214 313 l 378 496 l 542 496 l 313 256 l 550 0 l 388 0 l 214 197 l 196 197 l 196 0 l 70 0"},"l":{"ha":266,"x_min":0,"x_max":0,"o":"m 70 700 l 196 700 l 196 0 l 70 0"},"m":{"ha":854,"x_min":0,"x_max":0,"o":"m 70 496 l 194 496 l 194 442 l 212 442 b 334 504 229 475 268 504 b 468 430 405 504 445 474 l 486 430 b 622 504 508 472 546 504 b 788 326 714 504 788 446 l 788 0 l 662 0 l 662 317 b 582 399 662 371 632 399 b 492 293 524 399 492 361 l 492 0 l 366 0 l 366 317 b 286 399 366 371 336 399 b 196 293 228 399 196 361 l 196 0 l 70 0"},"n":{"ha":616,"x_min":0,"x_max":0,"o":"m 70 496 l 194 496 l 194 431 l 212 431 b 357 504 228 465 268 504 b 550 296 473 504 550 419 l 550 0 l 424 0 l 424 286 b 318 398 424 361 386 398 b 196 252 241 398 196 344 l 196 0 l 70 0"},"o":{"ha":612,"x_min":0,"x_max":0,"o":"m 306 -14 b 46 240 158 -14 46 80 l 46 256 b 306 510 46 416 158 510 b 566 256 454 510 566 416 l 566 240 b 306 -14 566 80 454 -14 m 306 98 b 440 243 383 98 440 150 l 440 253 b 306 398 440 346 384 398 b 172 253 228 398 172 346 l 172 243 b 306 98 172 150 229 98"},"p":{"ha":638,"x_min":0,"x_max":0,"o":"m 70 496 l 194 496 l 194 436 l 212 436 b 368 510 235 474 278 510 b 592 256 487 510 592 418 l 592 240 b 368 -14 592 78 488 -14 b 214 57 278 -14 235 22 l 196 57 l 196 -200 l 70 -200 m 330 96 b 466 243 408 96 466 147 l 466 253 b 330 400 466 349 407 400 b 194 253 253 400 194 349 l 194 243 b 330 96 194 147 252 96"},"q":{"ha":638,"x_min":0,"x_max":0,"o":"m 442 57 l 424 57 b 270 -14 403 22 360 -14 b 46 240 150 -14 46 78 l 46 256 b 270 510 46 418 151 510 b 426 436 360 510 403 474 l 444 436 l 444 496 l 568 496 l 568 -200 l 442 -200 m 308 96 b 444 243 386 96 444 147 l 444 253 b 308 400 444 349 385 400 b 172 253 231 400 172 349 l 172 243 b 308 96 172 147 230 96"},"r":{"ha":396,"x_min":0,"x_max":0,"o":"m 70 496 l 194 496 l 194 440 l 212 440 b 308 498 226 480 262 498 l 368 498 l 368 386 l 306 386 b 196 282 242 386 196 352 l 196 0 l 70 0"},"s":{"ha":524,"x_min":0,"x_max":0,"o":"m 276 -14 b 42 148 146 -14 59 44 l 158 178 b 276 86 171 108 218 86 b 362 140 334 86 362 109 b 278 196 362 171 337 185 l 250 201 b 60 357 146 220 60 259 b 256 510 60 455 138 510 b 466 376 367 510 443 456 l 349 340 b 256 410 338 391 304 410 b 182 363 208 410 182 392 b 256 310 182 331 210 318 l 284 305 b 484 149 396 285 484 253 b 276 -14 484 45 402 -14"},"t":{"ha":456,"x_min":0,"x_max":0,"o":"m 260 0 b 150 112 194 0 150 44 l 150 392 l 26 392 l 26 496 l 150 496 l 150 650 l 276 650 l 276 496 l 412 496 l 412 392 l 276 392 l 276 134 b 304 104 276 114 286 104 l 400 104 l 400 0 l 260 0"},"u":{"ha":616,"x_min":0,"x_max":0,"o":"m 259 -8 b 66 200 143 -8 66 77 l 66 496 l 192 496 l 192 210 b 298 98 192 135 230 98 b 420 244 375 98 420 152 l 420 496 l 546 496 l 546 0 l 422 0 l 422 65 l 404 65 b 259 -8 388 31 348 -8"},"v":{"ha":548,"x_min":0,"x_max":0,"o":"m 16 496 l 150 496 l 265 92 l 283 92 l 398 496 l 532 496 l 374 0 l 174 0"},"w":{"ha":784,"x_min":0,"x_max":0,"o":"m 40 496 l 165 496 l 209 85 l 227 85 l 291 496 l 493 496 l 557 85 l 575 85 l 619 496 l 744 496 l 674 0 l 465 0 l 401 411 l 383 411 l 319 0 l 110 0"},"x":{"ha":592,"x_min":0,"x_max":0,"o":"m 206 250 l 28 496 l 174 496 l 287 331 l 305 331 l 418 496 l 564 496 l 386 250 l 566 0 l 418 0 l 305 167 l 287 167 l 174 0 l 26 0"},"y":{"ha":616,"x_min":0,"x_max":0,"o":"m 124 -90 l 394 -90 b 422 -60 412 -90 422 -80 l 422 65 l 404 65 b 259 -8 388 31 348 -8 b 66 200 143 -8 66 77 l 66 496 l 192 496 l 192 210 b 298 98 192 135 230 98 b 420 244 375 98 420 152 l 420 496 l 546 496 l 546 -88 b 436 -200 546 -156 502 -200 l 124 -200"},"z":{"ha":518,"x_min":0,"x_max":0,"o":"m 52 150 l 324 376 l 324 392 l 62 392 l 62 496 l 462 496 l 462 346 l 190 120 l 190 104 l 470 104 l 470 0 l 52 0"},"{":{"ha":466,"x_min":0,"x_max":0,"o":"m 280 -246 b 178 -144 220 -246 178 -204 l 178 166 b 151 195 178 185 169 195 l 36 195 l 36 315 l 151 315 b 178 344 169 315 178 325 l 178 654 b 280 756 178 714 220 756 l 450 756 l 450 648 l 327 648 b 300 618 309 648 300 638 l 300 344 b 222 264 300 299 269 264 l 206 264 l 206 246 l 222 246 b 300 166 269 246 300 211 l 300 -108 b 327 -138 300 -128 309 -138 l 450 -138 l 450 -246 l 280 -246"},"|":{"ha":258,"x_min":0,"x_max":0,"o":"m 66 806 l 192 806 l 192 -246 l 66 -246"},"}":{"ha":466,"x_min":0,"x_max":0,"o":"m 16 -138 l 139 -138 b 166 -108 157 -138 166 -128 l 166 166 b 244 246 166 211 197 246 l 260 246 l 260 264 l 244 264 b 166 344 197 264 166 299 l 166 618 b 139 648 166 638 157 648 l 16 648 l 16 756 l 186 756 b 288 654 246 756 288 714 l 288 344 b 315 315 288 325 297 315 l 430 315 l 430 195 l 315 195 b 288 166 297 195 288 185 l 288 -144 b 186 -246 288 -204 246 -246 l 16 -246"},"~":{"ha":620,"x_min":0,"x_max":0,"o":"m 43 330 l 163 420 b 257 457 190 441 218 457 b 338 416 296 457 321 440 b 381 381 357 390 363 381 b 427 404 397 381 410 391 l 506 463 l 576 370 l 456 280 b 362 243 429 259 401 243 b 281 284 323 243 298 260 b 238 319 262 310 256 319 b 192 296 222 319 209 309 l 113 237"},"á":{"ha":578,"x_min":0,"x_max":0,"o":"m 279 700 l 421 700 l 315 552 l 205 552 m 224 -14 b 38 145 118 -14 38 43 b 230 300 38 247 118 300 l 366 300 l 366 328 b 274 408 366 374 338 408 b 174 331 211 408 183 376 l 58 370 b 276 510 82 445 147 510 b 488 319 406 510 488 443 l 488 134 b 516 104 488 114 498 104 l 556 104 l 556 0 l 472 0 b 387 66 423 0 387 26 l 387 67 l 368 67 b 224 -14 359 42 328 -14 m 246 88 b 366 196 316 88 366 130 l 366 206 l 239 206 b 164 149 192 206 164 185 b 246 88 164 113 192 88"},"é":{"ha":577,"x_min":0,"x_max":0,"o":"m 292 700 l 434 700 l 328 552 l 218 552 m 296 -14 b 46 242 147 -14 46 86 l 46 254 b 294 510 46 410 146 510 b 535 254 440 510 535 406 l 535 211 l 174 211 b 300 96 177 143 230 96 b 416 170 370 96 399 132 l 519 116 b 296 -14 491 63 432 -14 m 407 305 b 293 400 401 362 358 400 b 175 305 225 400 184 362"},"í":{"ha":266,"x_min":0,"x_max":0,"o":"m 131 700 l 273 700 l 167 552 l 57 552 m 70 496 l 196 496 l 196 0 l 70 0"},"ó":{"ha":612,"x_min":0,"x_max":0,"o":"m 304 700 l 446 700 l 340 552 l 230 552 m 306 -14 b 46 240 158 -14 46 80 l 46 256 b 306 510 46 416 158 510 b 566 256 454 510 566 416 l 566 240 b 306 -14 566 80 454 -14 m 306 98 b 440 243 383 98 440 150 l 440 253 b 306 398 440 346 384 398 b 172 253 228 398 172 346 l 172 243 b 306 98 172 150 229 98"},"ú":{"ha":616,"x_min":0,"x_max":0,"o":"m 304 700 l 446 700 l 340 552 l 230 552 m 259 -8 b 66 200 143 -8 66 77 l 66 496 l 192 496 l 192 210 b 298 98 192 135 230 98 b 420 244 375 98 420 152 l 420 496 l 546 496 l 546 0 l 422 0 l 422 65 l 404 65 b 259 -8 388 31 348 -8"},"ñ":{"ha":616,"x_min":0,"x_max":0,"o":"m 122 586 l 155 643 b 238 692 175 677 204 692 b 309 661 267 692 288 680 b 352 637 321 650 334 637 b 393 668 372 637 383 653 l 409 692 l 478 648 l 445 591 b 362 542 425 557 396 542 b 291 573 333 542 312 554 b 248 597 279 584 266 597 b 207 566 228 597 217 581 l 191 542 m 70 496 l 194 496 l 194 431 l 212 431 b 357 504 228 465 268 504 b 550 296 473 504 550 419 l 550 0 l 424 0 l 424 286 b 318 398 424 361 386 398 b 196 252 241 398 196 344 l 196 0 l 70 0"},"Á":{"ha":634,"x_min":0,"x_max":0,"o":"m 309 888 l 455 888 l 351 758 l 239 758 m 202 700 l 432 700 l 616 0 l 480 0 l 442 154 l 192 154 l 154 0 l 18 0 m 411 276 l 326 617 l 308 617 l 223 276"},"É":{"ha":554,"x_min":0,"x_max":0,"o":"m 288 888 l 434 888 l 330 758 l 218 758 m 66 700 l 516 700 l 516 580 l 198 580 l 198 413 l 488 413 l 488 293 l 198 293 l 198 120 l 522 120 l 522 0 l 66 0"},"Í":{"ha":264,"x_min":0,"x_max":0,"o":"m 124 888 l 270 888 l 166 758 l 54 758 m 66 700 l 198 700 l 198 0 l 66 0"},"Ó":{"ha":676,"x_min":0,"x_max":0,"o":"m 330 888 l 476 888 l 372 758 l 260 758 m 338 -14 b 50 266 162 -14 50 86 l 50 434 b 338 714 50 614 162 714 b 626 434 514 714 626 614 l 626 266 b 338 -14 626 86 514 -14 m 338 104 b 494 262 436 104 494 166 l 494 438 b 338 596 494 534 436 596 b 182 438 240 596 182 534 l 182 262 b 338 104 182 166 240 104"},"Ú":{"ha":672,"x_min":0,"x_max":0,"o":"m 328 888 l 474 888 l 370 758 l 258 758 m 336 -14 b 62 246 164 -14 62 86 l 62 700 l 194 700 l 194 242 b 336 104 194 156 244 104 b 478 242 428 104 478 156 l 478 700 l 610 700 l 610 246 b 336 -14 610 86 508 -14"},"Ñ":{"ha":670,"x_min":0,"x_max":0,"o":"m 153 797 l 185 840 b 272 890 209 872 235 890 b 343 862 304 890 320 881 b 389 837 356 851 369 837 b 434 868 410 837 422 853 l 451 890 l 515 839 l 483 796 b 396 746 459 764 433 746 b 325 774 364 746 348 755 b 279 799 312 785 299 799 b 234 768 258 799 246 783 l 217 746 m 66 700 l 317 700 l 456 90 l 474 90 l 474 700 l 604 700 l 604 0 l 353 0 l 214 610 l 196 610 l 196 0 l 66 0"},"¿":{"ha":578,"x_min":0,"x_max":0,"o":"m 299 510 b 394 415 353 510 394 471 b 299 320 394 359 353 320 b 204 415 245 320 204 359 b 299 510 204 471 245 510 m 288 -214 b 42 -10 146 -214 42 -130 b 188 191 42 110 118 158 l 205 199 b 237 252 229 210 237 223 l 237 266 l 369 266 l 369 246 b 282 107 369 178 344 136 l 265 99 b 172 -10 205 71 172 44 b 288 -102 172 -68 218 -102 b 414 6 360 -102 414 -66 l 414 28 l 544 28 l 544 8 b 288 -214 544 -130 432 -214"},"¡":{"ha":298,"x_min":0,"x_max":0,"o":"m 149 510 b 244 415 203 510 244 471 b 149 320 244 359 203 320 b 54 415 95 320 54 359 b 149 510 54 471 95 510 m 85 266 l 213 266 l 213 -200 l 85 -200"},"ü":{"ha":616,"x_min":0,"x_max":0,"o":"m 409 550 b 328 630 363 550 328 581 b 409 710 328 679 363 710 b 490 630 455 710 490 679 b 409 550 490 581 455 550 m 203 550 b 122 630 157 550 122 581 b 203 710 122 679 157 710 b 284 630 249 710 284 679 b 203 550 284 581 249 550 m 259 -8 b 66 200 143 -8 66 77 l 66 496 l 192 496 l 192 210 b 298 98 192 135 230 98 b 420 244 375 98 420 152 l 420 496 l 546 496 l 546 0 l 422 0 l 422 65 l 404 65 b 259 -8 388 31 348 -8"},"Ü":{"ha":672,"x_min":0,"x_max":0,"o":"m 447 754 b 366 834 401 754 366 785 b 447 914 366 883 401 914 b 528 834 493 914 528 883 b 447 754 528 785 493 754 m 225 754 b 144 834 179 754 144 785 b 225 914 144 883 179 914 b 306 834 271 914 306 883 b 225 754 306 785 271 754 m 336 -14 b 62 246 164 -14 62 86 l 62 700 l 194 700 l 194 242 b 336 104 194 156 244 104 b 478 242 428 104 478 156 l 478 700 l 610 700 l 610 246 b 336 -14 610 86 508 -14"}}}
